Patient4_TMGait_0pt7_02_right_38_EMG.mot
version=1
nRows=34
nColumns=33
inDegrees=no
endheader
time	1LAddLong	2LGlutMax	3LGlutMed	4LIliopsoas	5LSemiMemb	6LBicFemLong	7LRecFem	8LVastMed	9LVastLat	10LGasMed	11LTibAnt	12lTibPost	13LPeroneusLong	14LSol	15LExtDigLong	16LFlexDigLong	17RAddLong	18RGlutMax	19RGlutMed	20RIliopsoas	21RSemiMemb	22RBicFemLong	23RRecFem	24RVastMed	25RVastLat	26RGasMed	27RTibAnt	28RTibPost	29RPeroneusLong	30RSol	31RExtDigLong	32RFlexDigLong
43.337	0.009308	0.15945	0.13718	-0.032959	-0.016174	-0.028687	0.10773	0.004578	0.15091	0.066986	0.008545	-0.005646	-0.13855	0.088043	-0.018921	-0.062256	-0.17197	-0.62851	-0.29556	0.23285	0.022888	-0.22354	0.52414	-0.19928	0.027771	-0.036316	-0.43808	-0.039063	-0.27283	0.14542	0.005035	-0.007782
43.338	0.008698	0.20279	0.13825	-0.011444	0.005188	-0.066681	0.10254	-0.000916	0.1471	-0.21225	0.026245	0.015259	-0.16037	0.058899	0.024719	-0.072632	-0.21927	-0.70145	-0.62256	0.17258	0.52948	-0.20447	0.37323	-0.24612	0.41184	0.095215	-0.32242	-0.16235	2.1977	0.44098	0.002136	-0.014801
43.339	0.007782	0.22873	0.14969	0.024719	-0.007782	-0.076752	0.10117	-0.00412	0.15076	-0.32471	0.032043	0.023956	-0.17685	0.087433	0.086517	0.001526	-0.17029	-0.84595	-0.29022	-0.002289	0.61966	0.21439	0.30731	-0.18829	0.56122	0.072174	0.019684	-0.092773	-0.20477	0.81055	-0.001984	-0.022888
43.34	0.00946	0.2536	0.15808	0.055237	0.006561	-0.085754	0.13947	0.005646	0.14191	-0.24674	0.031433	0.028839	-0.18005	0.14175	0.092316	-0.37018	-0.09964	-0.93033	0.083008	-0.023499	0.49469	0.46555	0.11475	0.26276	0.78598	0.03891	0.25131	0.027771	-1.8489	0.55359	-0.001984	-0.018005
43.341	0.00824	0.3125	0.15778	0.056152	0.011139	-0.082703	0.18921	0.010834	0.13931	-0.18249	0.13077	0.01236	-0.19211	0.14542	0.072632	0.097961	-0.058136	-1.0699	-0.31082	-0.052643	0.35431	0.36301	0.25497	0.2327	0.7666	0.13153	0.38055	0.1886	-0.22827	0.45212	0	-0.024261
43.342	0.002747	0.37811	0.17838	0.014648	0.010681	-0.063477	0.24262	0	0.097656	-0.12573	0.29098	0.003204	-0.23392	0.12009	0.17364	0.089264	0.001984	-1.179	-0.5481	-0.032959	0.22018	0.070496	0.30991	0.001831	0.42648	0.22049	0.18402	0.009308	0.23773	0.002594	0.000916	-0.02533
43.343	-0.00412	0.35095	0.16068	-0.011139	0.007172	-0.032196	0.31189	0.006104	0.081482	-0.19592	0.30914	0.003967	-0.20111	0.13367	0.1648	-0.014648	0.014191	-1.3071	-0.72815	-0.18814	0.15625	-0.039673	0.19058	0.027466	0.088348	0.13092	0.031891	-0.13336	-0.37628	-0.57053	-0.000763	-0.028076
43.344	-0.005798	0.31967	0.15717	-0.030212	0.005646	-0.023346	0.30655	0.004272	0.086823	-0.17349	-0.046844	0.001526	-0.11185	0.1651	-0.18127	-0.004272	-0.035095	-1.4212	-0.63095	-0.67017	0.021973	-0.11475	0.13458	0.2449	-0.3688	0.046692	-0.13321	-0.057983	0.81787	-0.95215	0.000916	-0.020447
43.345	0.003967	0.28824	0.15701	0.005646	0.009155	0.002441	0.34607	-0.000763	0.077362	-0.19379	-0.20371	-0.000458	-0.092621	0.15076	-0.17807	-0.015717	-0.062408	-1.4172	-0.29068	-0.89462	-0.068665	-0.36652	0.22675	0.28763	-0.71106	0.074463	-0.16541	-0.026093	-0.24231	-0.8049	0.002441	-0.019379
43.346	-0.013733	0.23987	0.16144	0.029297	0.007324	0.030365	0.38742	0.007172	0.071716	-0.14358	-0.11124	-0.00351	-0.16205	0.13733	0.29785	-0.008698	-0.042267	-1.3405	-0.42267	-0.53818	-0.090179	-0.84808	0.2536	0.2887	-0.7457	0.1236	0.041504	0.066223	-1.3158	-0.27161	-0.002289	-0.028381
43.347	-0.018921	0.17609	0.17136	0.059052	0.005646	0.054016	0.47791	0.010834	0.037842	-0.16205	-0.03891	-0.00061	-0.098724	0.06958	0.1265	-0.003967	-0.014648	-1.2549	-0.5423	0.019531	-0.14099	-1.6995	0.1683	0.28305	-0.55405	0.02655	0.16754	-0.027924	-0.046997	-0.027313	0.00351	-0.024872
43.348	-0.011902	0.13519	0.16083	0.010834	0.01236	0.074921	0.47974	0.013733	-0.008545	-0.15854	-0.30701	0.003967	0.05722	-0.01709	-0.17807	0.010529	0.037689	-1.1757	-0.13702	0.56213	-0.16708	-2.1478	0.007324	0.19058	-0.23789	0.063019	-0.028534	-0.0383	1.6219	-0.112	0.005341	-0.022125
43.349	-0.016479	0.14114	0.15427	-0.011749	-0.000763	0.070801	0.43442	0.017242	-0.048676	-0.09079	-0.22675	0.008545	-0.06897	-0.01709	-0.16403	-0.006409	0.05127	-1.1443	0.044098	0.61798	-0.25757	-2.5299	-0.16678	0.13351	-0.1445	-0.064545	-0.1384	-0.042267	1.4204	0.35339	0.001526	-0.019531
43.35	-0.011292	0.15945	0.16419	-0.011292	-0.003052	0.093536	0.3862	0.018616	-0.078735	-0.033264	0.014343	0.007019	-0.20981	-0.046692	-0.32135	-0.001221	0.06958	-0.9903	0.27618	0.56427	-0.31357	-2.1332	-0.37659	0.1532	-0.095673	-0.11276	0.076141	-0.045929	-0.53665	0.50339	0.004578	-0.012207
43.351	-0.000916	0.18494	0.16388	-0.006104	-0.011902	0.084229	0.40726	0.021515	-0.093994	0.018616	0.06012	0.008087	-0.19836	-0.009918	-0.25559	0.017853	0.082855	-0.88913	0.90469	0.18936	-0.35477	-1.4706	-0.18601	0.24109	-0.011597	-0.094757	0.008545	-0.049744	-0.57053	0.39185	0.011902	-0.018616
43.352	-0.004272	0.21316	0.16663	0.000458	0.002747	0.065765	0.44968	0.024261	-0.1149	-0.007324	0.075073	0.002747	-0.13992	0.07431	-0.007477	0.016937	0.079956	-0.78217	1.4117	-0.019989	-0.29739	-0.6778	0.00946	0.28366	0.056458	0.18387	-0.20309	0.070343	0.44174	0.53863	0.002747	-0.017395
43.353	-0.001831	0.20325	0.16525	-0.027313	-0.015564	0.037384	0.46677	0.017395	-0.14343	-0.034637	0.003967	0.008087	-0.06424	0.12726	0.27924	0.007935	0.057831	-0.79605	1.4336	-0.008087	-0.2243	0.087738	0.059967	0.21576	0.054321	0.15457	-0.11597	-0.006714	0.38711	0.31082	0.00061	-0.014648
43.354	0.006409	0.22598	0.15411	-0.014343	-0.009155	0.026703	0.47546	0.021973	-0.17014	0.00946	-0.047302	0.01297	-0.11765	0.10376	0.75348	0.002747	0.005341	-0.79559	1.5366	0.044556	-0.16571	0.62042	0.1593	0.14282	0.028992	0.12146	0.10529	0.15076	-2.8171	-0.22827	0.001373	-0.023651
43.355	0.000763	0.24216	0.14862	-0.024719	0.005341	0.011749	0.26657	0.025635	-0.17822	-0.040588	0.098419	0.009918	-0.17563	0.1207	0.060577	0.00946	-0.036316	-0.61203	0.43808	0.13229	-0.16998	0.45166	0.38742	0.087433	-0.13657	0.014801	0.023346	-0.02243	-1.6676	-0.65872	-0.002747	-0.027771
43.356	0.002441	0.26611	0.15686	-0.032959	-0.001373	0.013275	0.21988	0.021515	-0.1886	-0.063629	0.15839	0.002747	-0.17395	0.1738	-0.2243	0.009308	-0.055237	-0.63705	-0.42877	0.39063	-0.25726	-0.33264	0.32761	0.032349	-0.21454	-0.060425	-0.031128	-0.070801	-1.1543	-0.84976	-0.000305	-0.025787
43.357	0.002899	0.2533	0.15671	-0.022583	0.008392	-0.015259	0.40329	0.00946	-0.19318	-0.053101	-0.18799	0.007629	-0.13275	0.21149	-0.58197	0.011597	-0.056152	-0.5693	-0.16464	0.40894	-0.21622	-0.68542	0.36545	-0.071564	-0.19577	0.043488	0.075226	-0.044861	-1.5109	-0.74143	0.003204	-0.010223
43.358	0.006561	0.21637	0.1445	-0.035095	0.002289	-0.023193	0.49759	0.023804	-0.21378	0.071869	-0.20523	0.006409	-0.097046	0.22369	-0.43701	0.007935	-0.057831	-0.54138	0.090485	0.21637	-0.20187	-0.26428	0.5394	-0.19943	-0.2092	0.080566	-0.26123	-0.02121	3.8554	-0.68314	-0.008392	0
43.359	-0.001068	0.14969	0.13992	-0.037231	0.007477	-0.013428	0.51483	0.027008	-0.23529	0.12497	-0.18768	0.013733	-0.066071	0.18662	-0.31433	-0.017395	-0.046539	-0.52094	-0.088043	-0.29068	-0.18387	-0.069885	0.66406	-0.14725	-0.055847	-0.019684	0.012512	-0.010834	3.5378	-0.28702	0.002594	0.002747
43.36	-0.009613	0.16312	0.15091	-0.03067	0.001678	-0.028534	0.55695	0.018311	-0.24979	0.16739	-0.24445	0.002136	-0.04776	-0.010986	-0.10254	-0.005188	-0.04425	-0.45959	-0.33188	-0.40207	-0.16617	-0.63721	0.097504	0.018311	0.38773	0.012207	0.27222	-0.021973	-2.4521	0.092926	-0.002594	-0.01236
43.361	-0.025787	0.15915	0.14542	0.001526	0.007629	-0.039825	0.43396	0.022736	-0.23972	0.033722	-0.062103	0.009155	-0.089111	-0.16449	0.14358	-0.005646	-0.051117	-0.28183	-0.40329	-0.23499	-0.070801	-0.96558	-0.6218	0.24216	0.61996	0.019379	0.40497	-0.014954	-2.6526	-0.045319	0.000153	-0.016632
43.362	-0.016632	0.084229	0.15106	0.000916	0.005951	-0.064697	0.34073	0.019989	-0.24963	-0.1294	0.2803	0.012817	-0.16815	-0.1265	0.2034	-0.006256	-0.038147	-0.14267	-0.042267	0.059814	-0.029907	-0.58121	-0.4184	0.51086	0.41977	0.014038	0.466	-0.018005	-0.98343	-0.009613	0.003204	-0.024567
43.363	-0.024109	0.00412	0.14191	0.003204	0.015869	-0.06134	0.23254	0.023193	-0.26047	-0.2655	0.16388	0.003967	-0.1683	-0.008087	0.17288	-0.003815	0.016022	-0.10422	0.044098	0.11337	-0.038452	0.17853	-0.019226	0.35477	0.16037	-0.02533	0.60211	-0.015259	-0.24902	0.078278	0.00061	-0.020905
43.364	-0.024567	-0.091553	0.13794	-0.019684	0.018311	-0.070801	0.27817	0.024414	-0.23834	-0.30197	-0.00885	0.001373	-0.12528	-0.036163	0.008545	-0.006561	0.032806	-0.17609	0.43381	0.2272	-0.040131	0.060272	0.13245	0.11795	0.019684	-0.084076	1.091	-0.012512	0.36575	0.066071	0.006104	-0.020447
43.365	-0.020752	-0.18173	0.13153	-0.053101	0.013733	-0.072174	0.47394	0.010681	-0.23392	0.06958	-0.075073	0.001221	-0.15793	-0.054779	-0.02243	0.019073	0.028381	-0.11032	-0.43579	0.20554	-0.11658	0.047913	0.048676	0.10483	-0.014648	-0.082092	1.122	-0.017548	0.88287	-0.1268	0.001068	-0.021667
43.366	-0.02533	-0.2832	0.12665	-0.013428	0.014038	-0.051575	0.35812	0.012817	-0.24536	-0.10239	-0.007019	0.003204	-0.16312	-0.012207	0.82657	0.007324	0.010071	-0.10101	-0.029755	-0.15259	-0.18799	-0.12787	0.11017	0.090179	-0.11978	-0.13534	0.31601	-0.008698	0.11444	-0.23697	-0.002136	-0.01358
43.367	-0.028534	-0.36652	0.10742	0.050812	0.015259	-0.06424	0.2388	0.00946	-0.25269	-0.30411	0.1471	-0.001221	-0.168	0.022736	0.037384	0.014954	-0.012817	-0.09964	0.54138	-0.28351	-0.20203	0.86624	0.28412	0.034637	-0.17075	-0.14206	-1.1247	-0.010376	0.55618	-0.18768	-0.001678	-0.00061
43.368	-0.055237	-0.44647	0.12024	0.10773	0.009003	-0.042114	0.17075	0.018311	-0.25177	-0.41901	0.090637	0.01358	-0.18982	0.11429	-0.11459	-0.004272	-0.09903	-0.015717	-0.035095	-0.2681	-0.01709	1.7186	0.27359	0.074005	-0.11246	-0.19379	-1.1446	-0.029907	2.3274	0.10391	-0.001221	-0.00061
43.369	-0.077972	-0.45837	0.13229	0.085602	0.005951	-0.030518	0.12039	0.021057	-0.25803	-0.466	0.10452	0.02121	-0.16373	0.071564	-0.65613	-0.003662	-0.12756	0.16861	0.16342	-0.19287	0.18326	2.191	0.24368	0.006104	0.00061	-0.089417	-0.80658	-0.037384	1.2704	0.087891	-0.000305	-0.001984
43.37	-0.049286	-0.49881	0.13855	0.000305	0.005341	-0.004272	0.074921	0.019379	-0.25391	-0.12375	-0.06546	0.017853	-0.10498	-0.021667	-0.54306	0.001526	-0.095825	0.35538	0.33981	-0.16281	0.33371	1.9962	0.23056	-0.012512	0.072479	-0.016022	-0.18036	-0.050049	-1.7238	-0.19302	-0.002136	-0.000763
